<svg width="24.000000" height="24.000000" viewBox="0 0 16 16" fill="none" xmlns="http://www.w3.org/2000/svg"
		 xmlns:xlink="http://www.w3.org/1999/xlink">
	<desc>
			Created with Pixso.
	</desc>
	<defs>
		<clipPath id="clip2_21">
			<rect id="plus" rx="0.000000" width="24.000000" height="24.000000" transform="translate(0.500000 0.500000)"
						fill="white" fill-opacity="0"/>
		</clipPath>
	</defs>
	<rect id="plus" rx="0.000000" width="24.000000" height="24.000000" transform="translate(0.500000 0.500000)"
				fill="#FFFFFF" fill-opacity="0"/>
	<g clip-path="url(#clip2_21)" >
		<path id="Vector" d="M7.98 1.45C9.27 1.45 10.53 1.83 11.61 2.55C12.68 3.27 13.52 4.29 14.01 5.48C14.51 6.67 14.64 7.99 14.39 9.25C14.13 10.52 13.51 11.68 12.6 12.6C11.68 13.51 10.52 14.13 9.25 14.39C7.99 14.64 6.67 14.51 5.48 14.01C4.29 13.52 3.27 12.68 2.55 11.61C1.83 10.53 1.45 9.27 1.45 7.98C1.45 6.25 2.14 4.59 3.37 3.37C4.59 2.14 6.25 1.45 7.98 1.45ZM7.98 0C6.4 0 4.86 0.48 3.55 1.36C2.24 2.24 1.23 3.49 0.63 4.95C0.03 6.41 -0.13 8.01 0.19 9.56C0.5 11.1 1.26 12.52 2.38 13.64C3.5 14.75 4.92 15.51 6.47 15.81C8.01 16.12 9.62 15.96 11.07 15.35C12.53 14.75 13.78 13.72 14.65 12.41C15.53 11.1 16 9.56 16 7.98C16 6.93 15.79 5.89 15.38 4.92C14.98 3.95 14.39 3.06 13.65 2.32C12.9 1.58 12.02 0.99 11.04 0.59C10.07 0.19 9.03 -0.01 7.98 0Z" fill="#F2F2F2" fill-opacity="1.000000" fill-rule="nonzero"/>
		<path id="Vector" d="M11.7 7.38L8.49 7.38L8.49 4.16L7.41 4.16L7.41 7.38L4.19 7.38L4.19 8.46L7.41 8.46L7.41 11.67L8.49 11.67L8.49 8.46L11.7 8.46L11.7 7.38Z" fill="#F2F2F2" fill-opacity="1.000000" fill-rule="nonzero"/>
	</g>
</svg>
