<svg width="24.000000" height="24.000000" viewBox="0 0 24 24" fill="" xmlns="http://www.w3.org/2000/svg"
		 xmlns:xlink="http://www.w3.org/1999/xlink">
	<defs>
		<clipPath id="clip2_105">
			<rect id="trash" rx="3.500000" width="23.000000" height="23.000000" transform="translate(0.500000 0.500000)" fill="white" fill-opacity="0"/>
		</clipPath>
	</defs>
	<rect id="trash" rx="3.500000" width="23.000000" height="23.000000" transform="translate(0.500000 0.500000)" fill="#FFFFFF" fill-opacity="0"/>
	<g clip-path="url(#clip2_105)" fill="#808080" fill-opacity="1">
		<path id="Vector" d="M12.87 9.98L14.2 9.98L14.2 15.5L12.87 15.5L12.87 9.98Z"  fill-rule="evenodd"/>
		<path id="Vector" d="M10.13 9.98L11.46 9.98L11.46 15.5L10.13 15.5L10.13 9.98Z"  fill-rule="evenodd"/>
		<path  id="Vector"
					 d="M18.47 7.16C18.47 7.03 18.42 6.89 18.34 6.78C18.26 6.68 18.14 6.6 18.01 6.56C17.95 6.53 17.89 6.52 17.83 6.51L14.28 6.51C14.15 6.07 13.88 5.69 13.51 5.42C13.14 5.14 12.69 5 12.23 5C11.77 5 11.33 5.14 10.96 5.42C10.59 5.69 10.32 6.07 10.18 6.51L6.63 6.51C6.58 6.51 6.52 6.52 6.46 6.54L6.45 6.54C6.31 6.58 6.19 6.67 6.11 6.79C6.03 6.91 5.99 7.05 6 7.2C6.01 7.34 6.07 7.48 6.16 7.59C6.26 7.69 6.39 7.76 6.54 7.79L7.25 17.53C7.26 17.91 7.41 18.27 7.68 18.54C7.94 18.81 8.3 18.97 8.68 19L15.78 19C16.16 18.98 16.52 18.81 16.79 18.54C17.05 18.27 17.2 17.91 17.21 17.53L17.92 7.79C18.08 7.77 18.21 7.7 18.32 7.58C18.42 7.46 18.47 7.32 18.47 7.16ZM12.23 6.21C12.36 6.21 12.49 6.24 12.61 6.29C12.73 6.34 12.83 6.42 12.92 6.51L11.54 6.51C11.63 6.42 11.74 6.34 11.85 6.29C11.97 6.24 12.1 6.21 12.23 6.21ZM15.78 17.79L8.68 17.79C8.6 17.79 8.47 17.65 8.45 17.44L7.75 7.81L16.71 7.81L16.01 17.44C15.99 17.65 15.87 17.79 15.78 17.79Z"  fill-rule="nonzero"/>
	</g>
</svg>
