<svg width="22.000000" height="36.000000" viewBox="0 0 22 36" fill="none" xmlns="http://www.w3.org/2000/svg" xmlns:xlink="http://www.w3.org/1999/xlink">
	<desc>
			Created with Pixso.
	</desc>
	<defs>
		<clipPath id="clip4130_482">
			<rect id="rocket" rx="0.000000" width="21.000000" height="35.000000" transform="translate(0.500000 0.500000)" fill="white" fill-opacity="0"/>
		</clipPath>
	</defs>
	<rect id="rocket" rx="0.000000" width="21.000000" height="35.000000" transform="translate(0.500000 0.500000)" fill="#FFFFFF" fill-opacity="0"/>
	<g clip-path="url(#clip4130_482)">
		<path id="Vector" d="M11.02 2.93C14.14 6.9 15.81 11.79 15.75 16.81L15.75 18.01L16.78 18.64C18.11 19.44 19.11 20.69 19.58 22.16C19.17 21.86 18.73 21.58 18.28 21.32L15.53 19.78L15.03 22.9C14.99 23.17 14.93 23.44 14.86 23.71L7.16 23.71C7.04 23.36 6.95 23.01 6.86 22.64L6.24 19.82L3.7 21.23C3.28 21.47 2.87 21.73 2.48 22.01C2.96 20.56 3.94 19.32 5.24 18.49L6.22 17.86L6.22 16.75C6.24 11.75 7.92 6.89 11.02 2.93L11.02 2.93ZM11.02 0C10.86 0 10.71 0.05 10.59 0.16L10.52 0.21C6.39 4.76 4.1 10.64 4.08 16.74C2.32 17.86 1.03 19.55 0.41 21.51C-0.2 23.48 -0.1 25.6 0.71 27.49C1.56 25.64 2.99 24.1 4.78 23.09C4.96 23.86 5.2 24.61 5.5 25.34C5.53 25.48 5.62 25.61 5.73 25.7C5.85 25.78 5.99 25.83 6.14 25.84L16.08 25.84C16.28 25.84 16.48 25.64 16.58 25.35C16.87 24.65 17.07 23.93 17.18 23.18C18.98 24.19 20.4 25.73 21.25 27.58C22.11 25.7 22.24 23.57 21.62 21.59C21.01 19.62 19.68 17.93 17.9 16.84C17.97 10.7 15.69 4.77 11.51 0.21C11.45 0.15 11.37 0.09 11.29 0.05C11.2 0.01 11.11 0 11.02 0L11.02 0Z" fill="#4EA8DE" fill-opacity="1.000000" fill-rule="nonzero"/>
		<path id="Vector" d="M11.02 16.15C10.47 16.15 9.93 15.99 9.47 15.69C9.01 15.39 8.66 14.97 8.44 14.47C8.23 13.97 8.18 13.42 8.28 12.88C8.39 12.35 8.65 11.86 9.04 11.48C9.43 11.1 9.92 10.83 10.46 10.72C11 10.62 11.56 10.67 12.07 10.87C12.58 11.08 13.01 11.42 13.32 11.87C13.63 12.32 13.8 12.85 13.8 13.39C13.81 13.74 13.75 14.09 13.62 14.42C13.49 14.75 13.3 15.05 13.05 15.3C12.81 15.55 12.51 15.76 12.19 15.9C11.86 16.04 11.51 16.12 11.15 16.13C11.11 16.13 11.06 16.13 11.02 16.13L11.02 16.15Z" fill="#4EA8DE" fill-opacity="1.000000" fill-rule="nonzero"/>
		<path id="Path 3417" d="M14.89 27.59C14.71 27.59 14.53 27.61 14.37 27.68C14.2 27.74 14.05 27.84 13.92 27.96C13.79 28.08 13.68 28.23 13.61 28.39C13.54 28.55 13.5 28.73 13.5 28.9L13.5 33.06C13.5 33.42 13.65 33.77 13.91 34.03C14.17 34.29 14.52 34.43 14.89 34.43C15.26 34.43 15.61 34.29 15.87 34.03C16.13 33.77 16.28 33.42 16.28 33.06L16.28 28.96C16.29 28.78 16.26 28.61 16.19 28.44C16.13 28.28 16.03 28.13 15.91 28C15.79 27.87 15.64 27.77 15.47 27.7C15.31 27.63 15.13 27.59 14.96 27.59L14.89 27.59Z" fill="#5E60CE" fill-opacity="1.000000" fill-rule="nonzero"/>
		<path id="Path 3418" d="M7.16 27.59C6.97 27.58 6.79 27.61 6.62 27.67C6.45 27.73 6.29 27.83 6.16 27.95C6.02 28.07 5.92 28.22 5.84 28.38C5.77 28.55 5.73 28.72 5.72 28.9L5.72 33.06C5.72 33.42 5.87 33.77 6.13 34.03C6.39 34.29 6.75 34.43 7.11 34.43C7.48 34.43 7.84 34.29 8.1 34.03C8.36 33.77 8.5 33.42 8.5 33.06L8.5 28.96C8.51 28.78 8.48 28.61 8.41 28.44C8.35 28.28 8.26 28.13 8.13 28C8.01 27.87 7.86 27.77 7.7 27.7C7.53 27.63 7.36 27.59 7.18 27.59L7.16 27.59Z" fill="#5E60CE" fill-opacity="1.000000" fill-rule="nonzero"/>
		<path id="Path 3419" d="M10.92 27.59C10.74 27.59 10.56 27.62 10.39 27.68C10.23 27.75 10.07 27.84 9.95 27.96C9.82 28.08 9.71 28.23 9.64 28.39C9.57 28.55 9.53 28.73 9.53 28.9L9.53 34.63C9.53 35 9.67 35.34 9.93 35.6C10.19 35.86 10.55 36 10.92 36C11.28 36 11.64 35.86 11.9 35.6C12.16 35.34 12.31 35 12.31 34.63L12.31 28.99C12.31 28.82 12.28 28.64 12.22 28.48C12.15 28.31 12.06 28.16 11.93 28.04C11.81 27.91 11.66 27.81 11.5 27.74C11.34 27.67 11.16 27.63 10.98 27.63L10.92 27.59Z" fill="#5E60CE" fill-opacity="1.000000" fill-rule="nonzero"/>
	</g>
</svg>
